<svg width="86" height="86" viewBox="0 0 86 86" fill="none" xmlns="http://www.w3.org/2000/svg">
<g clip-path="url(#clip0_0_27)">
<g filter="url(#filter0_d_0_27)">
<path fill-rule="evenodd" clip-rule="evenodd" d="M32.25 14.3333C26.3129 14.3333 21.5 19.1463 21.5 25.0833V60.9167C21.5 66.8537 26.3129 71.6667 32.25 71.6667H53.75C59.6871 71.6667 64.5 66.8537 64.5 60.9167V35.8333H53.75C47.8129 35.8333 43 31.0204 43 25.0833V14.3333H32.25ZM50.1667 19.4009L59.4324 28.6667H53.75C51.771 28.6667 50.1667 27.0624 50.1667 25.0833V19.4009ZM14.3333 25.0833C14.3333 15.1882 22.3549 7.16667 32.25 7.16667H46.5833C47.5337 7.16667 48.4451 7.5442 49.1171 8.21621L70.6171 29.7162C71.2891 30.3882 71.6667 31.2996 71.6667 32.25V60.9167C71.6667 70.8118 63.6451 78.8333 53.75 78.8333H32.25C22.3549 78.8333 14.3333 70.8118 14.3333 60.9167V25.0833ZM43 39.4167C44.979 39.4167 46.5833 41.021 46.5833 43V52.2657L47.6329 51.2162C49.0322 49.8168 51.3011 49.8168 52.7005 51.2162C54.0998 52.6156 54.0998 54.8844 52.7005 56.2838L45.5338 63.4505C44.1344 64.8499 41.8656 64.8499 40.4662 63.4505L33.2995 56.2838C31.9002 54.8844 31.9002 52.6156 33.2995 51.2162C34.6989 49.8168 36.9678 49.8168 38.3671 51.2162L39.4167 52.2657L39.4167 43C39.4167 41.021 41.021 39.4167 43 39.4167Z" fill="#31304D"/>
<path fill-rule="evenodd" clip-rule="evenodd" d="M32.25 14.3333C26.3129 14.3333 21.5 19.1463 21.5 25.0833V60.9167C21.5 66.8537 26.3129 71.6667 32.25 71.6667H53.75C59.6871 71.6667 64.5 66.8537 64.5 60.9167V35.8333H53.75C47.8129 35.8333 43 31.0204 43 25.0833V14.3333H32.25ZM50.1667 19.4009L59.4324 28.6667H53.75C51.771 28.6667 50.1667 27.0624 50.1667 25.0833V19.4009ZM14.3333 25.0833C14.3333 15.1882 22.3549 7.16667 32.25 7.16667H46.5833C47.5337 7.16667 48.4451 7.5442 49.1171 8.21621L70.6171 29.7162C71.2891 30.3882 71.6667 31.2996 71.6667 32.25V60.9167C71.6667 70.8118 63.6451 78.8333 53.75 78.8333H32.25C22.3549 78.8333 14.3333 70.8118 14.3333 60.9167V25.0833ZM43 39.4167C44.979 39.4167 46.5833 41.021 46.5833 43V52.2657L47.6329 51.2162C49.0322 49.8168 51.3011 49.8168 52.7005 51.2162C54.0998 52.6156 54.0998 54.8844 52.7005 56.2838L45.5338 63.4505C44.1344 64.8499 41.8656 64.8499 40.4662 63.4505L33.2995 56.2838C31.9002 54.8844 31.9002 52.6156 33.2995 51.2162C34.6989 49.8168 36.9678 49.8168 38.3671 51.2162L39.4167 52.2657L39.4167 43C39.4167 41.021 41.021 39.4167 43 39.4167Z" stroke="black"/>
</g>
</g>
<defs>
<filter id="filter0_d_0_27" x="10.3333" y="7.16667" width="65.3333" height="79.6667" filterUnits="userSpaceOnUse" color-interpolation-filters="sRGB">
<feFlood flood-opacity="0" result="BackgroundImageFix"/>
<feColorMatrix in="SourceAlpha" type="matrix" values="0 0 0 0 0 0 0 0 0 0 0 0 0 0 0 0 0 0 127 0" result="hardAlpha"/>
<feOffset dy="4"/>
<feGaussianBlur stdDeviation="2"/>
<feComposite in2="hardAlpha" operator="out"/>
<feColorMatrix type="matrix" values="0 0 0 0 0 0 0 0 0 0 0 0 0 0 0 0 0 0 0.25 0"/>
<feBlend mode="normal" in2="BackgroundImageFix" result="effect1_dropShadow_0_27"/>
<feBlend mode="normal" in="SourceGraphic" in2="effect1_dropShadow_0_27" result="shape"/>
</filter>
<clipPath id="clip0_0_27">
<rect width="86" height="86" fill="white"/>
</clipPath>
</defs>
</svg>
